<svg width="169" height="36" viewBox="0 0 169 36" fill="none" xmlns="http://www.w3.org/2000/svg">
<g filter="url(#filter0_d_205_1300)">
<path d="M28.18 7.92C30.556 7.92 32.416 8.604 33.76 9.972C35.128 11.34 35.812 13.356 35.812 16.02V27H33.256V16.272C33.256 14.304 32.776 12.804 31.816 11.772C30.88 10.74 29.548 10.224 27.82 10.224C25.852 10.224 24.304 10.836 23.176 12.06C22.048 13.26 21.484 14.928 21.484 17.064V27H18.928V16.272C18.928 14.304 18.448 12.804 17.488 11.772C16.552 10.74 15.208 10.224 13.456 10.224C11.512 10.224 9.964 10.836 8.812 12.06C7.684 13.26 7.12 14.928 7.12 17.064V27H4.564V8.064H7.012V11.52C7.684 10.368 8.62 9.48 9.82 8.856C11.02 8.232 12.4 7.92 13.96 7.92C15.544 7.92 16.912 8.256 18.064 8.928C19.24 9.6 20.116 10.596 20.692 11.916C21.388 10.668 22.384 9.696 23.68 9C25 8.28 26.5 7.92 28.18 7.92ZM60.094 8.064V27H57.646V23.256C56.878 24.528 55.858 25.5 54.586 26.172C53.338 26.844 51.922 27.18 50.338 27.18C48.562 27.18 46.954 26.772 45.514 25.956C44.074 25.14 42.946 24 42.13 22.536C41.314 21.072 40.906 19.404 40.906 17.532C40.906 15.66 41.314 13.992 42.13 12.528C42.946 11.064 44.074 9.936 45.514 9.144C46.954 8.328 48.562 7.92 50.338 7.92C51.874 7.92 53.254 8.244 54.478 8.892C55.726 9.516 56.746 10.44 57.538 11.664V8.064H60.094ZM50.554 24.912C51.874 24.912 53.062 24.612 54.118 24.012C55.198 23.388 56.038 22.512 56.638 21.384C57.262 20.256 57.574 18.972 57.574 17.532C57.574 16.092 57.262 14.808 56.638 13.68C56.038 12.552 55.198 11.688 54.118 11.088C53.062 10.464 51.874 10.152 50.554 10.152C49.21 10.152 47.998 10.464 46.918 11.088C45.862 11.688 45.022 12.552 44.398 13.68C43.798 14.808 43.498 16.092 43.498 17.532C43.498 18.972 43.798 20.256 44.398 21.384C45.022 22.512 45.862 23.388 46.918 24.012C47.998 24.612 49.21 24.912 50.554 24.912ZM76.5364 25.848C76.0564 26.28 75.4684 26.616 74.7724 26.856C74.0764 27.072 73.3444 27.18 72.5764 27.18C70.8004 27.18 69.4324 26.7 68.4724 25.74C67.5124 24.78 67.0324 23.424 67.0324 21.672V3.924H69.5884V8.064H75.3124V10.224H69.5884V21.528C69.5884 22.656 69.8644 23.52 70.4164 24.12C70.9684 24.696 71.7724 24.984 72.8284 24.984C73.9804 24.984 74.9164 24.66 75.6364 24.012L76.5364 25.848ZM90.8175 7.92C93.1935 7.92 95.0775 8.616 96.4695 10.008C97.8855 11.376 98.5935 13.38 98.5935 16.02V27H96.0375V16.272C96.0375 14.304 95.5455 12.804 94.5615 11.772C93.5775 10.74 92.1735 10.224 90.3495 10.224C88.3095 10.224 86.6895 10.836 85.4895 12.06C84.3135 13.26 83.7255 14.928 83.7255 17.064V27H81.1695V0.287998H83.7255V11.376C84.4215 10.272 85.3815 9.42 86.6055 8.82C87.8295 8.22 89.2335 7.92 90.8175 7.92Z" fill="black"/>
<path d="M121.985 6.444C119.513 5.004 116.777 4.176 113.777 3.96V27H111.113V3.96C108.161 4.152 105.413 4.98 102.869 6.444L101.897 4.356C105.017 2.508 108.521 1.584 112.409 1.584C116.369 1.584 119.885 2.508 122.957 4.356L121.985 6.444ZM128.547 11.772C129.147 10.5 130.035 9.54 131.211 8.892C132.411 8.244 133.887 7.92 135.639 7.92V10.404L135.027 10.368C133.035 10.368 131.475 10.98 130.347 12.204C129.219 13.428 128.655 15.144 128.655 17.352V27H126.099V8.064H128.547V11.772ZM140.267 8.064H142.823V27H140.267V8.064ZM141.563 3.924C141.035 3.924 140.591 3.744 140.231 3.384C139.871 3.024 139.691 2.592 139.691 2.088C139.691 1.608 139.871 1.188 140.231 0.827998C140.591 0.467998 141.035 0.287998 141.563 0.287998C142.091 0.287998 142.535 0.467998 142.895 0.827998C143.255 1.164 143.435 1.572 143.435 2.052C143.435 2.58 143.255 3.024 142.895 3.384C142.535 3.744 142.091 3.924 141.563 3.924ZM161.995 27L155.983 19.08L149.935 27H147.055L154.543 17.28L147.415 8.064H150.295L155.983 15.48L161.671 8.064H164.479L157.351 17.28L164.911 27H161.995Z" fill="#F84D89"/>
</g>
<defs>
<filter id="filter0_d_205_1300" x="0.563995" y="0.287994" width="168.347" height="34.892" filterUnits="userSpaceOnUse" color-interpolation-filters="sRGB">
<feFlood flood-opacity="0" result="BackgroundImageFix"/>
<feColorMatrix in="SourceAlpha" type="matrix" values="0 0 0 0 0 0 0 0 0 0 0 0 0 0 0 0 0 0 127 0" result="hardAlpha"/>
<feOffset dy="4"/>
<feGaussianBlur stdDeviation="2"/>
<feComposite in2="hardAlpha" operator="out"/>
<feColorMatrix type="matrix" values="0 0 0 0 0 0 0 0 0 0 0 0 0 0 0 0 0 0 0.25 0"/>
<feBlend mode="normal" in2="BackgroundImageFix" result="effect1_dropShadow_205_1300"/>
<feBlend mode="normal" in="SourceGraphic" in2="effect1_dropShadow_205_1300" result="shape"/>
</filter>
</defs>
</svg>
